<svg width="64" height="64" viewBox="0 0 64 64" fill="none" xmlns="http://www.w3.org/2000/svg">
<path d="M48 50.2933H45.9734C43.84 50.2933 41.8133 51.1199 40.32 52.6133L35.76 57.1199C33.68 59.1733 30.2933 59.1733 28.2133 57.1199L23.6533 52.6133C22.16 51.1199 20.1067 50.2933 18 50.2933H16C11.5733 50.2933 8 46.7467 8 42.3734V13.2799C8 8.9066 11.5733 5.36002 16 5.36002H48C52.4267 5.36002 56 8.9066 56 13.2799V42.3734C56 46.72 52.4267 50.2933 48 50.2933Z" fill="#FFDC3F"/>
<path d="M27.68 38.6934H20.5333C19.36 38.6934 18.2667 38.1333 17.5733 37.1733C16.9067 36.2667 16.7467 35.1467 17.0667 34.0801C18 31.2267 20.2933 29.68 22.32 28.2933C24.4533 26.8533 25.6533 25.9467 25.6533 24.4001C25.6533 23.0134 24.5333 21.8934 23.1466 21.8934C21.76 21.8934 20.64 23.0134 20.64 24.4001C20.64 25.4934 19.7333 26.4001 18.64 26.4001C17.5467 26.4001 16.64 25.4934 16.64 24.4001C16.64 20.8267 19.5466 17.8934 23.1466 17.8934C26.7466 17.8934 29.6533 20.8001 29.6533 24.4001C29.6533 28.1601 26.8267 30.08 24.56 31.6266C23.1467 32.5866 21.8133 33.4934 21.1466 34.6934H27.6533C28.7467 34.6934 29.6533 35.6 29.6533 36.6934C29.6533 37.7867 28.7733 38.6934 27.68 38.6934Z" fill="#18181B"/>
<path d="M42.7733 38.6934C41.68 38.6934 40.7733 37.7867 40.7733 36.6934V34.8533H35.5467C35.5467 34.8533 35.5467 34.8533 35.52 34.8533C34.2134 34.8533 33.0133 34.16 32.3467 33.04C31.68 31.8934 31.68 30.48 32.3467 29.36C34.16 26.24 36.2667 22.6933 38.1867 19.5999C39.04 18.2399 40.6667 17.6267 42.1867 18.0534C43.7067 18.5067 44.7733 19.8933 44.7467 21.4933V30.88H45.3333C46.4267 30.88 47.3333 31.7867 47.3333 32.88C47.3333 33.9734 46.4267 34.88 45.3333 34.88H44.7733V36.72C44.7733 37.8134 43.8933 38.6934 42.7733 38.6934ZM40.7733 23.04C39.2 25.6 37.5733 28.3467 36.1066 30.8533H40.7733V23.04Z" fill="black"/>
</svg>
