<svg width="64" height="64" viewBox="0 0 64 64" fill="none" xmlns="http://www.w3.org/2000/svg">
<path d="M40.0001 60.6667C39.2801 60.6667 38.6134 60.2667 38.2668 59.6533C37.9201 59.0133 37.9201 58.2667 38.2934 57.6267L41.0934 52.96C41.6534 52 42.9068 51.7067 43.8401 52.2667C44.8001 52.8267 45.0934 54.0533 44.5334 55.0133L43.8134 56.2133C51.1734 54.48 56.6934 47.8667 56.6934 39.9733C56.6934 38.88 57.6001 37.9733 58.6934 37.9733C59.7868 37.9733 60.6934 38.88 60.6934 39.9733C60.6668 51.3867 51.3868 60.6667 40.0001 60.6667Z" fill="#18181B"/>
<path d="M5.33325 26C4.23992 26 3.33325 25.0933 3.33325 24C3.33325 12.6133 12.6133 3.33334 23.9999 3.33334C24.7199 3.33334 25.3866 3.73334 25.7332 4.34668C26.0799 4.98668 26.0799 5.73334 25.7066 6.37334L22.9066 11.04C22.3466 11.9733 21.1199 12.2933 20.1599 11.7067C19.2266 11.1467 18.9066 9.92001 19.4932 8.96001L20.2133 7.76001C12.8266 9.49334 7.33325 16.1067 7.33325 24C7.33325 25.0933 6.42659 26 5.33325 26Z" fill="#18181B"/>
<path d="M39.4666 33.68V41.52C39.4666 48.0533 36.8533 50.6667 30.3199 50.6667H22.4799C15.9466 50.6667 13.3333 48.0533 13.3333 41.52V33.68C13.3333 27.1467 15.9466 24.5333 22.4799 24.5333H30.3199C36.8533 24.5333 39.4666 27.1467 39.4666 33.68Z" fill="#FFD800"/>
<path d="M41.5201 13.3333H33.6801C27.2534 13.3333 24.6401 15.8933 24.5601 22.1867H30.3201C38.1601 22.1867 41.7867 25.84 41.7867 33.6533V39.4133C48.1067 39.3333 50.6401 36.72 50.6401 30.2933V22.48C50.6667 15.9467 48.0534 13.3333 41.5201 13.3333Z" fill="#FFD800"/>
</svg>
