<svg width="64" height="64" viewBox="0 0 64 64" fill="none" xmlns="http://www.w3.org/2000/svg">
<path d="M29.2267 5.62666L14.56 11.12C11.76 12.1867 9.46667 15.4933 9.46667 18.5067V40.1067C9.46667 42.2667 10.88 45.12 12.6133 46.4L27.28 57.36C29.8667 59.3067 34.1067 59.3067 36.6933 57.36L51.36 46.4C53.0933 45.0933 54.5067 42.2667 54.5067 40.1067V18.5067C54.5067 15.52 52.2133 12.1867 49.4133 11.1467L34.7467 5.65332C33.2533 5.06666 30.7467 5.06666 29.2267 5.62666Z" fill="#FFDC3F"/>
<path d="M38.6667 28C38.6667 24.32 35.68 21.3333 32 21.3333C28.32 21.3333 25.3334 24.32 25.3334 28C25.3334 30.9867 27.3067 33.4667 30 34.32V41.3333C30 42.4267 30.9067 43.3333 32 43.3333C33.0934 43.3333 34 42.4267 34 41.3333V34.32C36.6934 33.4667 38.6667 30.9867 38.6667 28Z" fill="#18181B"/>
</svg>
